<svg width="30" height="30" viewBox="0 0 30 30" fill="none" xmlns="http://www.w3.org/2000/svg">
<g id="octicon:arrow-up-16">
<path id="Vector" d="M15.4137 6.50599C15.6774 6.24264 16.0348 6.09473 16.4075 6.09473C16.7801 6.09473 17.1376 6.24264 17.4012 6.50599L25.37 14.4747C25.6333 14.7384 25.7812 15.0958 25.7812 15.4685C25.7812 15.8411 25.6333 16.1986 25.37 16.4622L17.4012 24.431C17.1345 24.6793 16.7819 24.8144 16.4176 24.8082C16.0532 24.8019 15.7055 24.6546 15.4475 24.3972C15.1902 24.1392 15.0429 23.7915 15.0366 23.4272C15.0303 23.0628 15.1655 22.7102 15.4137 22.4435L20.9825 16.8747H7.03249C6.65953 16.8747 6.30184 16.7266 6.03812 16.4629C5.7744 16.1991 5.62624 15.8414 5.62624 15.4685C5.62624 15.0955 5.7744 14.7378 6.03812 14.4741C6.30184 14.2104 6.65953 14.0622 7.03249 14.0622H20.9825L15.4137 8.49349C15.1504 8.22982 15.0025 7.8724 15.0025 7.49974C15.0025 7.12708 15.1504 6.76966 15.4137 6.50599Z" fill="white"/>
</g>
</svg>
