<svg width="28" height="28" viewBox="0 0 28 28" fill="none" xmlns="http://www.w3.org/2000/svg">
<path d="M21.8 10H6.2C5.53726 10 5 10.597 5 11.3333V24.6667C5 25.403 5.53726 26 6.2 26H21.8C22.4627 26 23 25.403 23 24.6667V11.3333C23 10.597 22.4627 10 21.8 10Z" stroke="#FFF6F6" stroke-width="4"/>
<path d="M9.79766 16.6667C10.4604 16.6667 10.9977 16.0697 10.9977 15.3333C10.9977 14.597 10.4604 14 9.79766 14C9.13491 14 8.59766 14.597 8.59766 15.3333C8.59766 16.0697 9.13491 16.6667 9.79766 16.6667Z" fill="#FFF6F6"/>
<path d="M18.2 16.6667C18.8627 16.6667 19.4 16.0697 19.4 15.3333C19.4 14.597 18.8627 14 18.2 14C17.5373 14 17 14.597 17 15.3333C17 16.0697 17.5373 16.6667 18.2 16.6667Z" fill="#FFF6F6"/>
<path d="M11.6023 19.333C11.2841 19.333 10.9789 19.4735 10.7538 19.7235C10.5288 19.9736 10.4023 20.3127 10.4023 20.6663C10.4023 21.02 10.5288 21.3591 10.7538 21.6092C10.9789 21.8592 11.2841 21.9997 11.6023 21.9997V19.333ZM16.4023 21.9997C16.7206 21.9997 17.0258 21.8592 17.2509 21.6092C17.4759 21.3591 17.6023 21.02 17.6023 20.6663C17.6023 20.3127 17.4759 19.9736 17.2509 19.7235C17.0258 19.4735 16.7206 19.333 16.4023 19.333V21.9997ZM11.6023 21.9997H16.4023V19.333H11.6023V21.9997Z" fill="#FFF6F6"/>
<path d="M14 4.66699V10.0003M2 15.3337V20.667M26 15.3337V20.667" stroke="#FFF6F6" stroke-width="4" stroke-linecap="round" stroke-linejoin="round"/>
<path d="M14.0008 4.66667C14.6635 4.66667 15.2008 4.06971 15.2008 3.33333C15.2008 2.59695 14.6635 2 14.0008 2C13.338 2 12.8008 2.59695 12.8008 3.33333C12.8008 4.06971 13.338 4.66667 14.0008 4.66667Z" stroke="#FFF6F6" stroke-width="4"/>
</svg>
