<svg width="280" height="228" viewBox="0 0 280 228" fill="none" xmlns="http://www.w3.org/2000/svg">
<path d="M66.3862 4.088H67.3462V14.936H66.3862V4.088ZM64.5622 8.504H66.6502V9.32H64.5622V8.504ZM63.9262 4.328H64.8622V14.384H63.9262V4.328ZM58.6702 5.396H59.6662V11.66H58.6702V5.396ZM58.6702 11.264H59.3662C60.4822 11.264 61.7302 11.192 63.1462 10.916L63.2542 11.78C61.7782 12.068 60.5302 12.128 59.3662 12.128H58.6702V11.264ZM76.5252 4.076H77.5332V14.936H76.5252V4.076ZM77.2572 8.48H79.2612V9.308H77.2572V8.48ZM73.7532 5.252H74.7252C74.7252 8.336 73.3092 11.12 69.8052 12.884L69.2532 12.116C72.2532 10.592 73.7532 8.276 73.7532 5.408V5.252ZM69.7572 5.252H74.2692V6.068H69.7572V5.252ZM85.8753 4.76H86.6673V6.212C86.6673 7.832 85.7313 9.536 84.1353 10.244L83.5953 9.464C85.0233 8.84 85.8753 7.436 85.8753 6.212V4.76ZM86.0313 4.76H86.8233V6.212C86.8233 7.412 87.6393 8.636 89.0313 9.176L88.4913 9.932C86.9313 9.308 86.0313 7.808 86.0313 6.212V4.76ZM91.7913 4.1H92.7393V10.784H91.7913V4.1ZM90.0633 6.992H92.1153V7.808H90.0633V6.992ZM89.4633 4.304H90.4113V10.436H89.4633V4.304ZM89.1753 11.024C91.4073 11.024 92.7993 11.744 92.7993 12.98C92.7993 14.204 91.4073 14.912 89.1753 14.912C86.9313 14.912 85.5633 14.204 85.5633 12.98C85.5633 11.744 86.9313 11.024 89.1753 11.024ZM89.1753 11.804C87.5433 11.804 86.5353 12.236 86.5353 12.98C86.5353 13.712 87.5433 14.144 89.1753 14.144C90.8073 14.144 91.8033 13.712 91.8033 12.98C91.8033 12.236 90.8073 11.804 89.1753 11.804ZM102.062 4.088H103.058V10.448H102.062V4.088ZM102.782 6.824H104.666V7.664H102.782V6.824ZM99.0624 4.784H100.106C100.106 7.52 98.1984 9.476 95.0304 10.34L94.6224 9.56C97.4304 8.792 99.0624 7.22 99.0624 5.216V4.784ZM95.1024 4.784H99.6144V5.588H95.1024V4.784ZM96.0144 10.952H103.058V14.936H102.062V11.756H96.0144V10.952ZM113.029 4.088H114.025V14.936H113.029V4.088ZM113.785 8.54H115.801V9.38H113.785V8.54ZM105.625 5.816H112.021V6.632H105.625V5.816ZM108.865 7.532C110.401 7.532 111.505 8.564 111.505 10.028C111.505 11.492 110.401 12.524 108.865 12.524C107.341 12.524 106.225 11.492 106.225 10.028C106.225 8.564 107.341 7.532 108.865 7.532ZM108.865 8.36C107.881 8.36 107.173 9.044 107.173 10.028C107.173 11 107.881 11.696 108.865 11.696C109.849 11.696 110.557 11 110.557 10.028C110.557 9.044 109.849 8.36 108.865 8.36ZM108.349 4.22H109.345V6.188H108.349V4.22ZM124.62 4.088H125.616V14.936H124.62V4.088ZM121.44 5.252H122.424C122.424 8.396 121.008 11.144 117.384 12.92L116.856 12.116C119.988 10.604 121.44 8.3 121.44 5.42V5.252ZM117.348 5.252H121.872V6.068H117.348V5.252ZM132.156 8.3H134.208V9.128H132.156V8.3ZM136.02 4.088H136.98V14.936H136.02V4.088ZM133.872 4.316H134.82V14.396H133.872V4.316ZM130.2 4.988C131.604 4.988 132.516 6.44 132.516 8.768C132.516 11.096 131.604 12.548 130.2 12.548C128.796 12.548 127.896 11.096 127.896 8.768C127.896 6.44 128.796 4.988 130.2 4.988ZM130.2 5.912C129.348 5.912 128.808 7.016 128.808 8.768C128.808 10.52 129.348 11.624 130.2 11.624C131.064 11.624 131.604 10.52 131.604 8.768C131.604 7.016 131.064 5.912 130.2 5.912ZM150.242 8.408H152.246V9.248H150.242V8.408ZM149.51 4.076H150.518V14.936H149.51V4.076ZM142.598 5.144H143.594V11.864H142.598V5.144ZM142.598 11.348H143.462C145.07 11.348 146.714 11.24 148.502 10.868L148.622 11.696C146.774 12.08 145.106 12.188 143.462 12.188H142.598V11.348ZM154.537 7.34H161.905V8.156H154.537V7.34ZM153.205 9.608H163.045V10.424H153.205V9.608ZM154.537 4.484H155.521V7.748H154.537V4.484ZM154.465 13.856H161.965V14.672H154.465V13.856ZM154.465 11.504H155.449V14.072H154.465V11.504Z" fill="black"/>
<path d="M54.7332 25.784H55.6692V27.488H57.9852V25.784H58.9332V30.836H54.7332V25.784ZM55.6692 28.28V30.032H57.9852V28.28H55.6692ZM62.4372 25.1H63.3852V31.604H62.4372V25.1ZM60.6852 27.908H62.7372V28.736H60.6852V27.908ZM60.1092 25.292H61.0572V31.544H60.1092V25.292ZM56.1132 32.252H63.3852V35.936H62.4012V33.068H56.1132V32.252ZM69.9003 28.184H71.7483V29H69.9003V28.184ZM67.8603 25.928C69.2763 25.928 70.3203 27.02 70.3203 28.568C70.3203 30.116 69.2763 31.208 67.8603 31.208C66.4203 31.208 65.3883 30.116 65.3883 28.568C65.3883 27.02 66.4203 25.928 67.8603 25.928ZM67.8603 26.792C66.9603 26.792 66.2883 27.524 66.2883 28.568C66.2883 29.612 66.9603 30.356 67.8603 30.356C68.7483 30.356 69.4203 29.612 69.4203 28.568C69.4203 27.524 68.7483 26.792 67.8603 26.792ZM73.4763 25.088H74.4243V33.2H73.4763V25.088ZM71.4243 25.304H72.3723V32.888H71.4243V25.304ZM67.3563 34.88H74.7603V35.696H67.3563V34.88ZM67.3563 32.156H68.3523V35.252H67.3563V32.156ZM77.5673 30.284H85.0193V31.1H77.5673V30.284ZM76.3313 33.644H86.1593V34.472H76.3313V33.644ZM77.5673 26.084H84.9113V26.912H78.5633V30.644H77.5673V26.084ZM94.7024 25.076H95.7104V35.948H94.7024V25.076ZM95.4704 29.36H97.4864V30.2H95.4704V29.36ZM87.8264 32.408H88.6784C90.6824 32.408 92.0864 32.336 93.7064 32.036L93.8144 32.876C92.1464 33.188 90.7184 33.248 88.6784 33.248H87.8264V32.408ZM87.8264 26.132H92.8664V26.948H88.8104V32.78H87.8264V26.132Z" fill="black"/>
<rect x="14.9453" y="22" width="31.8861" height="18" rx="9" fill="#66629F"/>
<path d="M147.917 33.716H157.745V34.544H147.917V33.716ZM148.769 26.168H156.821V26.984H148.769V26.168ZM148.793 30.752H156.809V31.568H148.793V30.752ZM150.461 26.924H151.457V30.836H150.461V26.924ZM154.157 26.924H155.141V30.836H154.157V26.924ZM159.4 30.764H160.216C162.34 30.764 163.588 30.716 165.064 30.452L165.148 31.268C163.624 31.532 162.364 31.58 160.216 31.58H159.4V30.764ZM159.376 25.844H164.176V29.024H160.384V31.268H159.4V28.244H163.204V26.648H159.376V25.844ZM166.876 25.1H167.872V33.056H166.876V25.1ZM160.876 34.88H168.208V35.696H160.876V34.88ZM160.876 32.468H161.872V35.132H160.876V32.468ZM164.848 27.908H167.128V28.772H164.848V27.908ZM171.255 30.932H178.707V31.736H171.255V30.932ZM169.995 33.716H179.823V34.544H169.995V33.716ZM171.255 26.012H178.587V26.828H172.263V31.184H171.255V26.012ZM171.939 28.436H178.359V29.228H171.939V28.436ZM188.366 25.076H189.374V35.948H188.366V25.076ZM189.134 29.36H191.15V30.2H189.134V29.36ZM181.49 32.408H182.342C184.346 32.408 185.75 32.336 187.37 32.036L187.478 32.876C185.81 33.188 184.382 33.248 182.342 33.248H181.49V32.408ZM181.49 26.132H186.53V26.948H182.474V32.78H181.49V26.132Z" fill="black"/>
<rect x="108.613" y="22" width="31.8861" height="18" rx="9" fill="#918DCA"/>
<path d="M234.093 138.784H235.029V140.488H237.345V138.784H238.293V143.836H234.093V138.784ZM235.029 141.28V143.032H237.345V141.28H235.029ZM241.797 138.1H242.745V144.604H241.797V138.1ZM240.045 140.908H242.097V141.736H240.045V140.908ZM239.469 138.292H240.417V144.544H239.469V138.292ZM235.473 145.252H242.745V148.936H241.761V146.068H235.473V145.252ZM249.26 141.184H251.108V142H249.26V141.184ZM247.22 138.928C248.636 138.928 249.68 140.02 249.68 141.568C249.68 143.116 248.636 144.208 247.22 144.208C245.78 144.208 244.748 143.116 244.748 141.568C244.748 140.02 245.78 138.928 247.22 138.928ZM247.22 139.792C246.32 139.792 245.648 140.524 245.648 141.568C245.648 142.612 246.32 143.356 247.22 143.356C248.108 143.356 248.78 142.612 248.78 141.568C248.78 140.524 248.108 139.792 247.22 139.792ZM252.836 138.088H253.784V146.2H252.836V138.088ZM250.784 138.304H251.732V145.888H250.784V138.304ZM246.716 147.88H254.12V148.696H246.716V147.88ZM246.716 145.156H247.712V148.252H246.716V145.156ZM256.927 143.284H264.379V144.1H256.927V143.284ZM255.691 146.644H265.519V147.472H255.691V146.644ZM256.927 139.084H264.271V139.912H257.923V143.644H256.927V139.084ZM274.062 138.076H275.07V148.948H274.062V138.076ZM274.83 142.36H276.846V143.2H274.83V142.36ZM267.186 145.408H268.038C270.042 145.408 271.446 145.336 273.066 145.036L273.174 145.876C271.506 146.188 270.078 146.248 268.038 146.248H267.186V145.408ZM267.186 139.132H272.226V139.948H268.17V145.78H267.186V139.132Z" fill="black"/>
<path d="M3.43291 220.716H13.2609V221.544H3.43291V220.716ZM4.28491 213.168H12.3369V213.984H4.28491V213.168ZM4.30891 217.752H12.3249V218.568H4.30891V217.752ZM5.97691 213.924H6.97291V217.836H5.97691V213.924ZM9.67291 213.924H10.6569V217.836H9.67291V213.924ZM14.916 217.764H15.732C17.856 217.764 19.104 217.716 20.58 217.452L20.664 218.268C19.14 218.532 17.88 218.58 15.732 218.58H14.916V217.764ZM14.892 212.844H19.692V216.024H15.9V218.268H14.916V215.244H18.72V213.648H14.892V212.844ZM22.392 212.1H23.388V220.056H22.392V212.1ZM16.392 221.88H23.724V222.696H16.392V221.88ZM16.392 219.468H17.388V222.132H16.392V219.468ZM20.364 214.908H22.644V215.772H20.364V214.908ZM26.771 217.932H34.223V218.736H26.771V217.932ZM25.511 220.716H35.339V221.544H25.511V220.716ZM26.771 213.012H34.103V213.828H27.779V218.184H26.771V213.012ZM27.455 215.436H33.875V216.228H27.455V215.436ZM43.8821 212.076H44.8901V222.948H43.8821V212.076ZM44.6501 216.36H46.6661V217.2H44.6501V216.36ZM37.0061 219.408H37.8581C39.8621 219.408 41.2661 219.336 42.8861 219.036L42.9941 219.876C41.3261 220.188 39.8981 220.248 37.8581 220.248H37.0061V219.408ZM37.0061 213.132H42.0461V213.948H37.9901V219.78H37.0061V213.132Z" fill="black"/>
<path d="M175.621 146H227.436" stroke="#66629F" stroke-width="2" stroke-linecap="round"/>
<path d="M52.8125 218C52.2602 218 51.8125 218.448 51.8125 219C51.8125 219.552 52.2602 220 52.8125 220V218ZM52.8125 220H104.627V218H52.8125V220Z" fill="#918DCA"/>
<ellipse cx="113.591" cy="145" rx="82.7046" ry="83" fill="#918DCA"/>
<ellipse cx="113.652" cy="145.063" rx="54.449" ry="54.6469" fill="white"/>
<path d="M113.591 228C133.284 228 152.33 220.948 167.304 208.114C182.278 195.279 192.197 177.503 195.278 157.984C198.358 138.465 194.398 118.483 184.109 101.633C173.819 84.7823 157.877 72.1693 139.148 66.0623C120.42 59.9553 100.135 60.7552 81.9417 68.318C63.7484 75.8808 48.8411 89.7102 39.901 107.319C30.9609 124.927 28.5748 145.159 33.1718 164.376C37.7689 183.592 49.0474 200.532 64.9788 212.148L113.591 145L113.591 228Z" fill="#66629F"/>
<ellipse cx="113.614" cy="145.021" rx="54.4109" ry="54.6053" fill="white"/>
</svg>
