<svg width="480" height="410" viewBox="0 0 480 410" fill="none" xmlns="http://www.w3.org/2000/svg">
<path d="M12 0.5H468C474.351 0.5 479.5 5.64872 479.5 12V283.96H0.5V12C0.5 5.64873 5.64873 0.5 12 0.5Z" fill="#EDEEF0" stroke="url(#paint0_linear_1338_2056)"/>
<path d="M0 284.46H480V321.321C480 327.949 474.627 333.321 468 333.321H12C5.37257 333.321 0 327.949 0 321.321V284.46Z" fill="#D4D5D7"/>
<path d="M241.168 5.44331C241.168 6.17583 240.585 6.7577 239.879 6.7577C239.174 6.7577 238.59 6.17583 238.59 5.44331C238.59 4.71078 239.174 4.12891 239.879 4.12891C240.585 4.12891 241.168 4.71078 241.168 5.44331Z" fill="#55575E" stroke="#3B3B3B"/>
<mask id="mask0_1338_2056" style="mask-type:alpha" maskUnits="userSpaceOnUse" x="239" y="4" width="2" height="3">
<ellipse cx="239.878" cy="5.44367" rx="0.596409" ry="0.6048" fill="#494C51"/>
</mask>
<g mask="url(#mask0_1338_2056)">
<ellipse cx="239.878" cy="5.44367" rx="0.596409" ry="0.6048" fill="#494C51"/>
<rect x="239.281" y="4.83887" width="0.238564" height="1.2096" fill="#617189"/>
<rect x="240.234" y="4.83887" width="0.238586" height="1.2096" fill="#617189"/>
<ellipse cx="239.877" cy="5.44393" rx="0.357834" ry="0.36288" fill="#7B6A77"/>
<ellipse cx="239.996" cy="5.32297" rx="0.238552" ry="0.24192" fill="white" fill-opacity="0.2"/>
</g>
<rect x="182.98" y="333.321" width="114.036" height="70.3894" fill="url(#paint1_linear_1338_2056)"/>
<path d="M182.98 404.194H297.016V406.791C297.016 407.895 296.121 408.791 295.016 408.791H184.98C183.876 408.791 182.98 407.895 182.98 406.791V404.194Z" fill="#D5D6D8"/>
<path d="M182.98 404.194H198.249V408.791H184.98C183.876 408.791 182.98 407.895 182.98 406.791V404.194Z" fill="url(#paint2_linear_1338_2056)"/>
<path d="M297.016 404.194H281.747V408.791H295.016C296.12 408.791 297.016 407.895 297.016 406.791V404.194Z" fill="url(#paint3_linear_1338_2056)"/>
<path d="M280.793 408.79H295.107V408.79C295.107 409.458 294.566 410 293.897 410H282.003C281.335 410 280.793 409.458 280.793 408.79V408.79Z" fill="url(#paint4_linear_1338_2056)"/>
<path d="M280.793 408.79H295.107V408.79C295.107 409.458 294.566 410 293.897 410H282.003C281.335 410 280.793 409.458 280.793 408.79V408.79Z" fill="url(#paint5_linear_1338_2056)"/>
<rect x="182.98" y="403.711" width="114.036" height="0.241486" fill="#707173"/>
<rect x="182.98" y="403.952" width="114.036" height="0.241532" fill="#C7C8CA"/>
<rect x="182.98" y="404.194" width="114.036" height="0.241532" fill="#EBECEE"/>
<path d="M184.891 408.79H199.205V408.79C199.205 409.458 198.663 410 197.995 410H186.1C185.432 410 184.891 409.458 184.891 408.79V408.79Z" fill="url(#paint6_linear_1338_2056)"/>
<rect x="10" y="10" width="460" height="264" stroke="black" stroke-width="2"/>
<defs>
<linearGradient id="paint0_linear_1338_2056" x1="240" y1="0" x2="240" y2="284.46" gradientUnits="userSpaceOnUse">
<stop stop-color="white"/>
<stop offset="1" stop-color="white" stop-opacity="0"/>
</linearGradient>
<linearGradient id="paint1_linear_1338_2056" x1="239.998" y1="333.321" x2="239.998" y2="403.711" gradientUnits="userSpaceOnUse">
<stop stop-color="#A4A5A7"/>
<stop offset="0.504809" stop-color="#C8C9CB"/>
<stop offset="0.931918" stop-color="#D0D1D3"/>
<stop offset="0.957961" stop-color="#E8E9EB"/>
<stop offset="1" stop-color="#727375"/>
</linearGradient>
<linearGradient id="paint2_linear_1338_2056" x1="182.98" y1="406.251" x2="195.982" y2="406.251" gradientUnits="userSpaceOnUse">
<stop stop-color="#97989A"/>
<stop offset="0.0366972" stop-color="#707173"/>
<stop offset="0.110092" stop-color="#B9BABC"/>
<stop offset="0.380734" stop-color="#E7E8EA"/>
<stop offset="0.572521" stop-color="#D0D1D3"/>
<stop offset="1" stop-color="#D1D2D4" stop-opacity="0"/>
</linearGradient>
<linearGradient id="paint3_linear_1338_2056" x1="297.016" y1="406.251" x2="284.014" y2="406.251" gradientUnits="userSpaceOnUse">
<stop stop-color="#97989A"/>
<stop offset="0.0366972" stop-color="#707173"/>
<stop offset="0.110092" stop-color="#B9BABC"/>
<stop offset="0.380734" stop-color="#E7E8EA"/>
<stop offset="0.572521" stop-color="#D0D1D3"/>
<stop offset="1" stop-color="#D1D2D4" stop-opacity="0"/>
</linearGradient>
<linearGradient id="paint4_linear_1338_2056" x1="287.95" y1="408.79" x2="287.95" y2="410" gradientUnits="userSpaceOnUse">
<stop stop-color="#B39867"/>
<stop offset="0.171456" stop-color="#D8BD86"/>
<stop offset="0.364176" stop-color="#F3DDA6"/>
<stop offset="1" stop-color="#EFD8A1"/>
</linearGradient>
<linearGradient id="paint5_linear_1338_2056" x1="287.95" y1="408.79" x2="287.95" y2="410" gradientUnits="userSpaceOnUse">
<stop stop-color="#707173"/>
<stop offset="0.171456" stop-color="#A0A1A3"/>
<stop offset="0.364176" stop-color="#D5D6D8"/>
<stop offset="1" stop-color="#D5D6D8"/>
</linearGradient>
<linearGradient id="paint6_linear_1338_2056" x1="192.048" y1="408.79" x2="192.048" y2="410" gradientUnits="userSpaceOnUse">
<stop stop-color="#707173"/>
<stop offset="0.171456" stop-color="#A0A1A3"/>
<stop offset="0.364176" stop-color="#D5D6D8"/>
<stop offset="1" stop-color="#D5D6D8"/>
</linearGradient>
</defs>
</svg>
