<svg width="28" height="28" viewBox="0 0 28 28" fill="none" xmlns="http://www.w3.org/2000/svg">
<path d="M22.7968 5.92667C21.627 4.76517 20.237 3.84901 18.7084 3.23195C17.1798 2.6149 15.5434 2.30939 13.8951 2.33334C10.8009 2.3256 7.83036 3.54735 5.63697 5.7298C3.44357 7.91226 2.20699 10.8766 2.19926 13.9708C2.19152 17.065 3.41326 20.0356 5.59572 22.229C7.77817 24.4224 10.7426 25.6589 13.8368 25.6667C14.5035 25.678 15.1551 25.4676 15.6894 25.0685C16.2236 24.6694 16.6102 24.1042 16.7884 23.4617C16.902 22.9976 16.9009 22.5129 16.785 22.0494C16.6691 21.5859 16.4421 21.1577 16.1234 20.8017C16.0498 20.7178 16.0017 20.6146 15.9849 20.5043C15.9681 20.3939 15.9834 20.2811 16.0288 20.1791C16.0743 20.0772 16.148 19.9904 16.2413 19.9291C16.3346 19.8678 16.4435 19.8346 16.5551 19.8333H18.4801C20.2919 19.8418 22.0398 19.1645 23.3728 17.9375C24.7059 16.7105 25.5254 15.0246 25.6668 13.2183C25.7102 11.8716 25.478 10.5301 24.9845 9.27624C24.4909 8.02238 23.7465 6.88256 22.7968 5.92667ZM18.5268 17.5H16.6018C16.0396 17.4968 15.4885 17.6568 15.0155 17.9606C14.5425 18.2644 14.1677 18.699 13.9368 19.2115C13.7058 19.7241 13.6285 20.2926 13.7143 20.8483C13.8001 21.4039 14.0453 21.9226 14.4201 22.3417C14.4931 22.4153 14.5447 22.5074 14.5693 22.6081C14.594 22.7088 14.5908 22.8143 14.5601 22.9133C14.5018 23.1583 14.2334 23.31 13.8718 23.3333C12.5468 23.3164 11.2406 23.0174 10.0402 22.4565C8.8397 21.8955 7.77244 21.0854 6.90937 20.0799C6.0463 19.0745 5.40721 17.8968 5.03462 16.6252C4.66202 15.3536 4.56446 14.0172 4.74842 12.705C5.08112 10.4999 6.1829 8.48358 7.85891 7.01253C9.53492 5.54148 11.6772 4.71054 13.9068 4.66667H14.0001C15.3194 4.6494 16.6288 4.89651 17.8511 5.39344C19.0734 5.89036 20.1838 6.62704 21.1168 7.56C21.8448 8.28847 22.4168 9.15758 22.7979 10.1144C23.179 11.0711 23.3612 12.0955 23.3334 13.125C23.2126 14.3186 22.6551 15.4254 21.7679 16.233C20.8807 17.0405 19.7264 17.4917 18.5268 17.5Z" fill="black"/>
<path d="M14 9.33301C14.9665 9.33301 15.75 8.54951 15.75 7.58301C15.75 6.61651 14.9665 5.83301 14 5.83301C13.0335 5.83301 12.25 6.61651 12.25 7.58301C12.25 8.54951 13.0335 9.33301 14 9.33301Z" fill="black"/>
<path d="M17.7898 8.3997C17.4901 8.57279 17.2485 8.83082 17.0955 9.14118C16.9425 9.45155 16.8849 9.80031 16.9301 10.1434C16.9752 10.4865 17.1211 10.8085 17.3492 11.0687C17.5773 11.3289 17.8774 11.5156 18.2117 11.6053C18.5459 11.6949 18.8992 11.6835 19.2269 11.5724C19.5546 11.4613 19.842 11.2556 20.0529 10.9812C20.2637 10.7068 20.3884 10.3761 20.4113 10.0308C20.4342 9.68551 20.3542 9.34119 20.1814 9.04137C20.0666 8.8421 19.9137 8.66742 19.7313 8.52731C19.5489 8.3872 19.3407 8.28441 19.1186 8.22481C18.8965 8.16522 18.6648 8.14999 18.4368 8.18C18.2088 8.21001 17.9889 8.28466 17.7898 8.3997ZM10.2064 8.3997C9.90661 8.22695 9.5623 8.14696 9.21702 8.16984C8.87174 8.19273 8.541 8.31746 8.2666 8.52828C7.9922 8.7391 7.78646 9.02653 7.67538 9.35425C7.5643 9.68197 7.55287 10.0353 7.64254 10.3695C7.73221 10.7037 7.91894 11.0038 8.17915 11.2319C8.43935 11.46 8.76134 11.6059 9.10442 11.651C9.44749 11.6962 9.79625 11.6386 10.1066 11.4856C10.417 11.3326 10.675 11.091 10.8481 10.7914C10.9631 10.5922 11.0378 10.3724 11.0678 10.1444C11.0978 9.91635 11.0826 9.68466 11.023 9.46254C10.9634 9.24041 10.8606 9.03222 10.7205 8.84985C10.5804 8.66748 10.4057 8.51451 10.2064 8.3997ZM7.18477 13.1364C6.89773 13.3302 6.67466 13.6048 6.5438 13.9255C6.41293 14.2461 6.38016 14.5984 6.44963 14.9377C6.5191 15.277 6.68769 15.5881 6.93405 15.8315C7.18041 16.075 7.49347 16.2398 7.83358 16.3052C8.17369 16.3706 8.52556 16.3336 8.84464 16.1989C9.16372 16.0643 9.43565 15.8379 9.62602 15.5486C9.81638 15.2592 9.91661 14.9199 9.91401 14.5736C9.91142 14.2273 9.80611 13.8895 9.61144 13.603C9.48354 13.4121 9.31906 13.2484 9.12751 13.1215C8.93596 12.9945 8.72113 12.9068 8.49546 12.8634C8.2698 12.82 8.03776 12.8218 7.81279 12.8686C7.58781 12.9155 7.37435 13.0065 7.18477 13.1364Z" fill="black"/>
</svg>
