<svg width="32" height="32" viewBox="0 0 32 32" fill="none" xmlns="http://www.w3.org/2000/svg">
<g id="clarity:color-palette-line">
<path id="Vector" d="M19.147 20.4893C18.5985 20.5104 18.0554 20.3733 17.5826 20.0943C17.1098 19.8153 16.7272 19.4063 16.4804 18.9159C16.2069 18.2704 16.1942 17.544 16.4448 16.8893C16.7597 16.075 17.3823 15.4172 18.1781 15.0582C18.8767 14.6921 19.6907 14.6136 20.4464 14.8395C21.202 15.0653 21.8395 15.5777 22.2226 16.267C22.3708 16.5888 22.4535 16.9369 22.4657 17.291C22.4779 17.6451 22.4194 17.998 22.2937 18.3293C22.1358 18.7394 21.897 19.1137 21.5916 19.4298C21.2862 19.7458 20.9204 19.9973 20.5159 20.1693C20.0867 20.3695 19.6205 20.4785 19.147 20.4893ZM19.627 16.1248C19.3208 16.1228 19.0177 16.1864 18.7381 16.3115C18.2974 16.5189 17.9536 16.8882 17.7781 17.3426C17.7118 17.4955 17.6776 17.6604 17.6776 17.827C17.6776 17.9937 17.7118 18.1586 17.7781 18.3115C17.9961 18.6707 18.346 18.9305 18.7529 19.0351C19.1599 19.1397 19.5917 19.081 19.9559 18.8715C20.41 18.676 20.7681 18.3084 20.9515 17.8493C21.0175 17.6947 21.0515 17.5284 21.0515 17.3604C21.0515 17.1923 21.0175 17.026 20.9515 16.8715C20.8248 16.6338 20.6328 16.4372 20.3982 16.3049C20.1635 16.1726 19.896 16.1101 19.627 16.1248Z" fill="black"/>
<path id="Vector_2" d="M14.3907 30.1068C12.7851 30.1346 11.1899 29.845 9.69651 29.2546C8.20315 28.6643 6.84107 27.7849 5.68845 26.6668C4.46831 25.5274 3.49245 24.152 2.82012 22.624C2.14779 21.096 1.79302 19.4472 1.77734 17.7779C1.77734 13.8668 3.55512 9.92013 6.82623 6.6668C8.34986 5.1336 10.1653 3.92128 12.1653 3.10144C14.1653 2.28159 16.3093 1.87085 18.4707 1.89346H18.5773C21.5373 1.89346 24.6662 3.21791 25.0129 6.09791C25.1996 7.67124 24.4885 9.18235 23.8662 10.5424C23.3773 11.5824 22.8796 12.6668 23.2262 13.0401C23.5729 13.4135 24.1151 13.1468 25.084 12.8624C26.0369 12.4811 27.0766 12.3703 28.0885 12.5424C28.4471 12.6444 28.7803 12.8206 29.0666 13.0594C29.3529 13.2983 29.586 13.5945 29.7507 13.929C30.5862 15.5557 30.1685 18.0801 29.5462 19.7424C28.7451 21.9373 27.4564 23.9219 25.7773 25.5468C22.6676 28.4088 18.6163 30.0312 14.3907 30.1068ZM18.4707 3.69791C16.5388 3.68223 14.6234 4.05499 12.8383 4.79405C11.0533 5.53311 9.43499 6.62339 8.07957 8.00013C5.14623 10.8712 3.55512 14.3646 3.55512 17.7779C3.57045 19.2146 3.87779 20.6331 4.45846 21.9472C5.03914 23.2614 5.88101 24.4437 6.9329 25.4224C11.7151 30.089 19.9285 28.5779 24.5951 24.2401C26.0577 22.8021 27.1813 21.056 27.884 19.129C28.5062 17.4401 28.6307 15.6446 28.1685 14.7557C28.1178 14.6405 28.0433 14.5373 27.9499 14.453C27.8564 14.3687 27.7461 14.3053 27.6262 14.2668C26.9326 14.2049 26.2342 14.3116 25.5907 14.5779C24.4262 14.9246 22.924 15.369 21.9285 14.2668C20.7551 13.0224 21.5196 11.3779 22.2573 9.82235C22.8811 8.77183 23.2211 7.57722 23.244 6.35569C23.0307 4.57791 20.7462 3.73346 18.5685 3.68902L18.4707 3.69791Z" fill="black"/>
<path id="Vector_3" d="M21.2181 23.6885C21.1173 23.3584 20.9435 23.0551 20.7096 22.8013C20.4757 22.5474 20.1878 22.3494 19.867 22.2218L19.5559 22.1329L19.147 23.4929H19.2892C19.4127 23.5382 19.5246 23.6103 19.6168 23.7041C19.709 23.7979 19.7793 23.9109 19.8226 24.0351C19.9737 24.5685 19.4581 25.1996 18.7026 25.4129C17.947 25.6263 17.1826 25.3507 17.0314 24.8263L15.6626 25.2085C15.8402 25.7283 16.1832 26.1757 16.639 26.4822C17.0949 26.7888 17.6386 26.9377 18.187 26.9063C18.4874 26.9025 18.786 26.8607 19.0759 26.7818C19.7694 26.6542 20.3841 26.2571 20.7856 25.6774C21.1871 25.0977 21.3426 24.3826 21.2181 23.6885ZM13.3959 22.7463C13.2511 22.3142 12.9875 21.9316 12.6354 21.6424C12.2832 21.3531 11.8568 21.1689 11.4048 21.1107L11.1648 22.5151C11.3572 22.5218 11.5437 22.5841 11.7014 22.6945C11.8592 22.805 11.9816 22.9588 12.0537 23.1374C12.2048 23.6618 11.6892 24.2929 10.9337 24.5063C10.555 24.6264 10.1464 24.6107 9.77811 24.4618C9.65464 24.4165 9.54275 24.3444 9.45052 24.2506C9.3583 24.1569 9.28803 24.0438 9.24478 23.9196C9.24478 23.9196 9.24478 23.8396 9.24478 23.804L7.84033 23.9463C7.84545 24.0693 7.86332 24.1914 7.89367 24.3107C7.9917 24.6382 8.16143 24.9397 8.39052 25.1934C8.61961 25.4471 8.90231 25.6466 9.21811 25.7774C9.58751 25.9285 9.98346 26.0041 10.3826 25.9996C10.6831 25.9989 10.9822 25.9571 11.2714 25.8751C11.6168 25.8101 11.946 25.6775 12.2399 25.4848C12.5339 25.2921 12.7869 25.0432 12.9843 24.7525C13.1817 24.4617 13.3197 24.1347 13.3904 23.7904C13.461 23.4461 13.4629 23.0913 13.3959 22.7463ZM9.58256 17.0396C9.48171 16.7095 9.30791 16.4063 9.07404 16.1524C8.84017 15.8985 8.5522 15.7005 8.23145 15.5729C8.08788 15.5122 7.93913 15.4646 7.787 15.4307L7.45811 16.8174C7.53455 16.8329 7.60906 16.8568 7.68033 16.8885C7.8029 16.9328 7.91421 17.0036 8.00637 17.0958C8.09854 17.1879 8.16931 17.2993 8.21367 17.4218C8.36478 17.9551 7.84922 18.5863 7.09367 18.7996C6.33811 19.0129 5.57367 18.7463 5.42256 18.2129C5.39601 18.0989 5.39601 17.9803 5.42256 17.8663L4.03589 17.564C3.95158 17.9026 3.95158 18.2566 4.03589 18.5951C4.21437 19.1181 4.56004 19.5676 5.01952 19.8745C5.479 20.1814 6.02673 20.3284 6.57811 20.2929C6.87848 20.2892 7.17715 20.2473 7.467 20.1685C7.8116 20.1024 8.13979 19.969 8.43274 19.7759C8.72569 19.5828 8.97766 19.3338 9.17419 19.0431C9.37072 18.7525 9.50796 18.4259 9.57803 18.0821C9.64811 17.7382 9.64965 17.384 9.58256 17.0396ZM11.9559 10.1329C11.855 9.80281 11.6812 9.49959 11.4474 9.24571C11.2135 8.99184 10.9255 8.7938 10.6048 8.66626C10.5472 8.64322 10.4877 8.62537 10.427 8.61292L9.96478 9.95515C9.99428 9.95123 10.0242 9.95123 10.0537 9.95515C10.1762 9.9995 10.2875 10.0703 10.3797 10.1624C10.4719 10.2546 10.5426 10.3659 10.587 10.4885C10.7381 11.0218 10.2226 11.6529 9.467 11.8663C9.09266 11.9727 8.69412 11.9572 8.32922 11.8218C8.20575 11.7765 8.09386 11.7044 8.00164 11.6106C7.90941 11.5169 7.83914 11.4038 7.79589 11.2796C7.77788 11.1856 7.77788 11.0891 7.79589 10.9951L6.39145 10.8263C6.35139 11.1055 6.36955 11.39 6.44478 11.6618C6.53846 11.9959 6.70731 12.3042 6.9384 12.563C7.1695 12.8218 7.45672 13.0244 7.77811 13.1551C8.14696 13.3091 8.54288 13.3877 8.94256 13.3863C9.24292 13.3825 9.5416 13.3407 9.83145 13.2618C10.1768 13.1968 10.506 13.0641 10.7999 12.8715C11.0939 12.6788 11.3469 12.4299 11.5443 12.1391C11.7417 11.8484 11.8797 11.5214 11.9504 11.1771C12.021 10.8328 12.0229 10.478 11.9559 10.1329ZM18.667 6.02626C18.5679 5.69526 18.3948 5.39116 18.1607 5.13704C17.9266 4.88292 17.6377 4.68545 17.3159 4.55959L17.0492 4.4707L16.6226 5.8307H16.7559C16.8794 5.876 16.9913 5.94813 17.0835 6.04189C17.1757 6.13566 17.246 6.24872 17.2892 6.37293C17.4403 6.90626 16.9248 7.52848 16.1692 7.74181C15.4137 7.95515 14.6492 7.68848 14.4981 7.16404C14.4582 6.99103 14.4769 6.80965 14.5514 6.64848L13.2359 6.13293C13.0369 6.58979 12.9993 7.10074 13.1292 7.58181C13.3082 8.10081 13.6514 8.54732 14.107 8.85369C14.5625 9.16006 15.1055 9.30958 15.6537 9.27959C15.9548 9.27743 16.2541 9.23253 16.5426 9.14626C16.8871 9.08118 17.2153 8.94881 17.5086 8.75672C17.8019 8.56463 18.0544 8.31659 18.2518 8.0268C18.4491 7.73701 18.5873 7.41115 18.6586 7.06788C18.7298 6.7246 18.7327 6.37064 18.667 6.02626Z" fill="black"/>
</g>
</svg>
