<svg width="32" height="32" viewBox="0 0 32 32" fill="none" xmlns="http://www.w3.org/2000/svg">
<path d="M2 0C1.46957 0 0.960859 0.210714 0.585786 0.585786C0.210714 0.960859 0 1.46957 0 2L0 30C0 30.5304 0.210714 31.0391 0.585786 31.4142C0.960859 31.7893 1.46957 32 2 32H30C30.5304 32 31.0391 31.7893 31.4142 31.4142C31.7893 31.0391 32 30.5304 32 30V2C32 1.46957 31.7893 0.960859 31.4142 0.585786C31.0391 0.210714 30.5304 0 30 0L2 0ZM11 9H18.0293C19.3163 8.99933 20.5564 9.48296 21.503 10.3548C22.4497 11.2265 23.0337 12.4226 23.1389 13.7053C23.244 14.9879 22.8627 16.2632 22.0706 17.2775C21.2786 18.2919 20.1339 18.971 18.864 19.18V23H11V9ZM13 11V21H16.864V17.248H18.028C18.4382 17.248 18.8445 17.1672 19.2235 17.0102C19.6025 16.8532 19.9469 16.6231 20.237 16.333C20.5271 16.0429 20.7572 15.6985 20.9142 15.3195C21.0712 14.9405 21.152 14.5343 21.152 14.124C21.152 13.7138 21.0712 13.3075 20.9142 12.9285C20.7572 12.5495 20.5271 12.2051 20.237 11.915C19.9469 11.6249 19.6025 11.3948 19.2235 11.2378C18.8445 11.0808 18.4382 11 18.028 11H13Z" fill="#05A081"/>
</svg>
