<svg width="22" height="16" viewBox="0 0 22 16" fill="none" xmlns="http://www.w3.org/2000/svg">
<path id="Vector" d="M1 1.12889L2.28 0L19 14.8622L17.73 16L14.65 13.2622C13.5 13.6 12.28 13.7778 11 13.7778C6 13.7778 1.73 11.0133 0 7.11111C0.69 5.54667 1.79 4.16889 3.19 3.07556L1 1.12889ZM11 4.44444C11.7956 4.44444 12.5587 4.7254 13.1213 5.22549C13.6839 5.72559 14 6.40387 14 7.11111C14.0005 7.41384 13.943 7.71443 13.83 8L10 4.59556C10.3213 4.4951 10.6594 4.444 11 4.44444ZM11 0.444444C16 0.444444 20.27 3.20889 22 7.11111C21.1839 8.95396 19.7969 10.5535 18 11.7244L16.58 10.4533C17.9629 9.603 19.0782 8.45249 19.82 7.11111C19.0116 5.64439 17.7564 4.40868 16.1973 3.54445C14.6381 2.68021 12.8375 2.22211 11 2.22222C9.91 2.22222 8.84 2.38222 7.84 2.66667L6.3 1.30667C7.74 0.755555 9.33 0.444444 11 0.444444ZM2.18 7.11111C2.98844 8.57783 4.24357 9.81354 5.80273 10.6778C7.36189 11.542 9.16254 12.0001 11 12C11.69 12 12.37 11.9378 13 11.8133L10.72 9.77778C10.0242 9.71148 9.37482 9.43545 8.87997 8.99558C8.38512 8.55571 8.07458 7.97852 8 7.36L4.6 4.32889C3.61 5.08444 2.78 6.02667 2.18 7.11111Z" fill="#8E8E8E"/>
</svg>
