<svg width="26" height="26" viewBox="0 0 26 26" fill="none" xmlns="http://www.w3.org/2000/svg">
<path d="M13 1C6.3724 1 1 6.3724 1 13C1 19.6276 6.3724 25 13 25C19.6276 25 25 19.6276 25 13C25 6.3724 19.6276 1 13 1Z" stroke="#8E8E8E" stroke-width="2" stroke-linecap="round" stroke-linejoin="round"/>
<path d="M3.72656 20.615C3.72656 20.615 6.40136 17.1998 13.0014 17.1998C19.6014 17.1998 22.2774 20.615 22.2774 20.615M13.0014 12.9998C13.9561 12.9998 14.8718 12.6205 15.5469 11.9454C16.2221 11.2703 16.6014 10.3546 16.6014 9.3998C16.6014 8.44503 16.2221 7.52935 15.5469 6.85422C14.8718 6.17909 13.9561 5.7998 13.0014 5.7998C12.0466 5.7998 11.1309 6.17909 10.4558 6.85422C9.78065 7.52935 9.40136 8.44503 9.40136 9.3998C9.40136 10.3546 9.78065 11.2703 10.4558 11.9454C11.1309 12.6205 12.0466 12.9998 13.0014 12.9998Z" stroke="#8E8E8E" stroke-width="2" stroke-linecap="round" stroke-linejoin="round"/>
</svg>
