<svg width="28" height="29" viewBox="0 0 28 29" fill="none" xmlns="http://www.w3.org/2000/svg">
<g id="ic:round-share">
<path id="Vector" d="M21 19.4745C20.1133 19.4745 19.32 19.8245 18.7133 20.3729L10.395 15.5312C10.4533 15.2629 10.5 14.9945 10.5 14.7145C10.5 14.4345 10.4533 14.1662 10.395 13.8979L18.62 9.10285C19.25 9.68618 20.0783 10.0479 21 10.0479C22.9367 10.0479 24.5 8.48452 24.5 6.54785C24.5 4.61118 22.9367 3.04785 21 3.04785C19.0633 3.04785 17.5 4.61118 17.5 6.54785C17.5 6.82785 17.5467 7.09618 17.605 7.36452L9.38 12.1595C8.75 11.5762 7.92167 11.2145 7 11.2145C5.06333 11.2145 3.5 12.7779 3.5 14.7145C3.5 16.6512 5.06333 18.2145 7 18.2145C7.92167 18.2145 8.75 17.8529 9.38 17.2695L17.6867 22.1229C17.6283 22.3679 17.5933 22.6245 17.5933 22.8812C17.5933 24.7595 19.1217 26.2879 21 26.2879C22.8783 26.2879 24.4067 24.7595 24.4067 22.8812C24.4067 21.0029 22.8783 19.4745 21 19.4745Z" fill="black"/>
</g>
</svg>
