<svg width="40" height="40" viewBox="0 0 40 40" fill="none" xmlns="http://www.w3.org/2000/svg">
<g id="wpf:survey" clip-path="url(#clip0_1326_1320)">
<path id="Vector" d="M13.5603 -0.000252955C13.2038 0.0675354 12.8829 0.259104 12.654 0.540613C12.4251 0.822123 12.3031 1.17546 12.3095 1.53821V3.07667H6.78026C5.5495 3.07667 4.61719 4.00898 4.61719 5.23975V37.6921C4.61719 39.0767 5.5495 39.9997 6.78026 39.9997H33.0787C34.3095 39.9997 35.2418 39.0674 35.2418 37.8367V5.23975C35.3956 4.00898 34.4541 3.07667 33.2233 3.07667H27.6941V1.53821C27.6941 1.13018 27.532 0.738869 27.2435 0.450352C26.955 0.161834 26.5637 -0.000252955 26.1556 -0.000252955H13.848C13.7998 -0.00251985 13.7515 -0.00251985 13.7033 -0.000252955C13.6552 -0.00251985 13.6084 -0.00251985 13.5603 -0.000252955ZM15.3864 3.07667H24.6172V6.15359H15.3864V3.07667ZM7.69411 6.15359H12.3095V7.69205C12.3095 8.10008 12.4716 8.49139 12.7601 8.77991C13.0486 9.06843 13.4399 9.23052 13.848 9.23052H26.1556C26.5637 9.23052 26.955 9.06843 27.2435 8.77991C27.532 8.49139 27.6941 8.10008 27.6941 7.69205V6.15359H32.3095V36.9228H7.69411V6.15359ZM10.771 13.8459V19.9997H16.9249V13.8459H10.771ZM12.3095 15.3844H15.3864V18.4613H12.3095V15.3844ZM20.0018 15.3844V18.4613H29.2326V15.3844H20.0018ZM10.771 23.0767V29.2305H16.9249V23.0767H10.771ZM20.0018 24.6151V27.6921H29.2326V24.6151H20.0018Z" fill="black"/>
</g>
<defs>
<clipPath id="clip0_1326_1320">
<rect width="40" height="40" fill="white"/>
</clipPath>
</defs>
</svg>
