<svg width="24" height="24" viewBox="0 0 24 24" fill="none" xmlns="http://www.w3.org/2000/svg">
<mask id="mask0_887_1366" style="mask-type:luminance" maskUnits="userSpaceOnUse" x="0" y="0" width="24" height="24">
<path d="M12 24C13.5762 24.002 15.1372 23.6926 16.5934 23.0894C18.0495 22.4862 19.3721 21.6012 20.4852 20.4852C21.6012 19.3721 22.4862 18.0495 23.0894 16.5934C23.6926 15.1372 24.002 13.5762 24 12C24.002 10.4238 23.6925 8.86283 23.0893 7.40666C22.4861 5.95049 21.6011 4.62787 20.4852 3.51481C19.3721 2.39882 18.0495 1.51381 16.5934 0.91062C15.1372 0.307433 13.5762 -0.00203216 12 1.00419e-05C10.4238 -0.00199929 8.86283 0.307481 7.40666 0.910667C5.95049 1.51385 4.62787 2.39885 3.51481 3.51481C2.39885 4.62787 1.51385 5.95049 0.910667 7.40666C0.307481 8.86283 -0.00199929 10.4238 1.00419e-05 12C-0.00203216 13.5762 0.307433 15.1372 0.91062 16.5934C1.51381 18.0495 2.39882 19.3721 3.51481 20.4852C4.62787 21.6011 5.95049 22.4861 7.40666 23.0893C8.86283 23.6925 10.4238 24.002 12 24Z" fill="white"/>
</mask>
<g mask="url(#mask0_887_1366)">
<path d="M-2.39844 -2.40039H26.4015V26.3996H-2.39844V-2.40039Z" fill="#4BAF63"/>
<path d="M7.19922 12.0004L10.7992 15.6004L17.9992 8.40039" stroke="white" stroke-width="2" stroke-linecap="round" stroke-linejoin="round"/>
</g>
</svg>
