<svg width="18" height="21" viewBox="0 0 18 21" fill="none" xmlns="http://www.w3.org/2000/svg">
<path id="Vector" d="M16 3.85266V3.64108C16 2.72617 15.6839 1.84873 15.1213 1.20179C14.5587 0.554853 13.7956 0.191406 13 0.191406C12.2044 0.191406 11.4413 0.554853 10.8787 1.20179C10.3161 1.84873 10 2.72617 10 3.64108H8C8 2.72617 7.68393 1.84873 7.12132 1.20179C6.55871 0.554853 5.79565 0.191406 5 0.191406C4.20435 0.191406 3.44129 0.554853 2.87868 1.20179C2.31607 1.84873 2 2.72617 2 3.64108V3.85266C1.41685 4.0892 0.911605 4.52737 0.553542 5.10709C0.195478 5.68682 0.00212751 6.3797 0 7.09076V17.4398C0 19.3417 1.346 20.8895 3 20.8895H15C16.654 20.8895 18 19.3417 18 17.4398V7.09076C17.9979 6.3797 17.8045 5.68682 17.4465 5.10709C17.0884 4.52737 16.5832 4.0892 16 3.85266ZM12 3.64108C12 3.33611 12.1054 3.04363 12.2929 2.82799C12.4804 2.61234 12.7348 2.49119 13 2.49119C13.2652 2.49119 13.5196 2.61234 13.7071 2.82799C13.8946 3.04363 14 3.33611 14 3.64108V5.94087C14 6.24584 13.8946 6.53831 13.7071 6.75396C13.5196 6.96961 13.2652 7.09076 13 7.09076C12.7348 7.09076 12.4804 6.96961 12.2929 6.75396C12.1054 6.53831 12 6.24584 12 5.94087V3.64108ZM4 3.64108C4 3.33611 4.10536 3.04363 4.29289 2.82799C4.48043 2.61234 4.73478 2.49119 5 2.49119C5.26522 2.49119 5.51957 2.61234 5.70711 2.82799C5.89464 3.04363 6 3.33611 6 3.64108V5.94087C6 6.24584 5.89464 6.53831 5.70711 6.75396C5.51957 6.96961 5.26522 7.09076 5 7.09076C4.73478 7.09076 4.48043 6.96961 4.29289 6.75396C4.10536 6.53831 4 6.24584 4 5.94087V3.64108ZM16 17.4398C16 18.0734 15.552 18.5897 15 18.5897H3C2.448 18.5897 2 18.0734 2 17.4398V10.5404H16V17.4398ZM16 9.39054H2V7.09076C2 6.45717 2.448 5.94087 3 5.94087C3 6.55081 3.21071 7.13576 3.58579 7.56706C3.96086 7.99835 4.46957 8.24065 5 8.24065C5.53043 8.24065 6.03914 7.99835 6.41421 7.56706C6.78929 7.13576 7 6.55081 7 5.94087H11C11 6.55081 11.2107 7.13576 11.5858 7.56706C11.9609 7.99835 12.4696 8.24065 13 8.24065C13.5304 8.24065 14.0391 7.99835 14.4142 7.56706C14.7893 7.13576 15 6.55081 15 5.94087C15.552 5.94087 16 6.45717 16 7.09076V9.39054Z" fill="black"/>
</svg>
