<svg width="14" height="14" viewBox="0 0 14 14" fill="none" xmlns="http://www.w3.org/2000/svg">
<path fill-rule="evenodd" clip-rule="evenodd" d="M1.88607 3.01913H1.12086L0 1.74087L0.765204 0.888696L1.50885 1.71652L3.02848 0L3.79369 0.864348L1.88607 3.01913ZM5.37798 1.21739H14V2.43478H5.37798V1.21739ZM5.37798 4.86957H14V6.08696H5.37798V4.86957ZM14 8.52174H5.37798V9.73913H14V8.52174ZM5.37798 12.1739H14V13.3913H5.37798V12.1739ZM1.12086 6.67131H1.88607L3.79369 4.51652L3.02848 3.66435L1.50885 5.38087L0.765204 4.54087L0 5.40522L1.12086 6.67131ZM1.88607 10.3357H1.12086L0 9.06957L0.765204 8.20522L1.50885 9.04522L3.02848 7.31652L3.79369 8.18087L1.88607 10.3357ZM1.12086 14H1.88607L3.79369 11.8452L3.02848 10.9809L1.50885 12.7096L0.765204 11.8696L0 12.7217L1.12086 14Z" fill="black"/>
</svg>
