<svg width="20" height="20" viewBox="0 0 20 20" fill="none" xmlns="http://www.w3.org/2000/svg">
<path d="M15.2381 18.0952H1.90476V4.7619H10.4762V2.85714H1.90476C0.857143 2.85714 0 3.71429 0 4.7619V18.0952C0 19.1429 0.857143 20 1.90476 20H15.2381C16.2857 20 17.1429 19.1429 17.1429 18.0952V9.52381H15.2381V18.0952ZM7.81905 15.0762L5.95238 12.8286L3.33333 16.1905H13.8095L10.4381 11.7048L7.81905 15.0762ZM17.1429 2.85714V0H15.2381V2.85714H12.381C12.3905 2.86667 12.381 4.7619 12.381 4.7619H15.2381V7.60952C15.2476 7.61905 17.1429 7.60952 17.1429 7.60952V4.7619H20V2.85714H17.1429Z" fill="black"/>
</svg>
