<svg width="22" height="14" viewBox="0 0 22 14" fill="none" xmlns="http://www.w3.org/2000/svg">
<path d="M8.77734 6.99902C8.77734 7.52946 9.01147 8.03816 9.42822 8.41324C9.84497 8.78831 10.4102 8.99902 10.9996 8.99902C11.5889 8.99902 12.1542 8.78831 12.5709 8.41324C12.9877 8.03816 13.2218 7.52946 13.2218 6.99902C13.2218 6.46859 12.9877 5.95988 12.5709 5.58481C12.1542 5.20974 11.5889 4.99902 10.9996 4.99902C10.4102 4.99902 9.84497 5.20974 9.42822 5.58481C9.01147 5.95988 8.77734 6.46859 8.77734 6.99902Z" stroke="#8E8E8E" stroke-width="2" stroke-linecap="round" stroke-linejoin="round"/>
<path d="M21 7C18.3333 11 15 13 11 13C7 13 3.66667 11 1 7C3.66667 3 7 1 11 1C15 1 18.3333 3 21 7Z" stroke="#8E8E8E" stroke-width="2" stroke-linecap="round" stroke-linejoin="round"/>
</svg>
