<svg width="20" height="14" viewBox="0 0 20 14" fill="none" xmlns="http://www.w3.org/2000/svg">
<path d="M0.909091 0.987778L2.07273 0L17.2727 13.0044L16.1182 14L13.3182 11.6044C12.2727 11.9 11.1636 12.0556 10 12.0556C5.45455 12.0556 1.57273 9.63667 0 6.22222C0.627273 4.85333 1.62727 3.64778 2.9 2.69111L0.909091 0.987778ZM10 3.88889C10.7233 3.88889 11.417 4.13472 11.9285 4.57231C12.4399 5.00989 12.7273 5.60338 12.7273 6.22222C12.7277 6.48711 12.6755 6.75012 12.5727 7L9.09091 4.02111C9.38297 3.93321 9.69039 3.8885 10 3.88889ZM10 0.388889C14.5455 0.388889 18.4273 2.80778 20 6.22222C19.258 7.83472 17.9972 9.23433 16.3636 10.2589L15.0727 9.14667C16.3299 8.40263 17.3438 7.39593 18.0182 6.22222C17.2832 4.93884 16.1422 3.8576 14.7248 3.10139C13.3074 2.34519 11.6704 1.94435 10 1.94444C9.00909 1.94444 8.03636 2.08444 7.12727 2.33333L5.72727 1.14333C7.03636 0.661111 8.48182 0.388889 10 0.388889ZM1.98182 6.22222C2.71676 7.5056 3.85779 8.58685 5.27521 9.34305C6.69263 10.0993 8.32958 10.5001 10 10.5C10.6273 10.5 11.2455 10.4456 11.8182 10.3367L9.74545 8.55556C9.11287 8.49755 8.52257 8.25601 8.0727 7.87113C7.62284 7.48625 7.34053 6.98121 7.27273 6.44L4.18182 3.78778C3.28182 4.44889 2.52727 5.27333 1.98182 6.22222Z" fill="#8E8E8E"/>
</svg>
