<svg width="24" height="18" viewBox="0 0 24 18" fill="none" xmlns="http://www.w3.org/2000/svg">
<g id="Group">
<path id="Vector" d="M9.55469 8.99967C9.55469 9.70692 9.81223 10.3852 10.2706 10.8853C10.7291 11.3854 11.3508 11.6663 11.9991 11.6663C12.6474 11.6663 13.2692 11.3854 13.7276 10.8853C14.186 10.3852 14.4436 9.70692 14.4436 8.99967C14.4436 8.29243 14.186 7.61415 13.7276 7.11406C13.2692 6.61396 12.6474 6.33301 11.9991 6.33301C11.3508 6.33301 10.7291 6.61396 10.2706 7.11406C9.81223 7.61415 9.55469 8.29243 9.55469 8.99967Z" stroke="#8E8E8E" stroke-width="2" stroke-linecap="round" stroke-linejoin="round"/>
<path id="Vector_2" d="M23 9C20.0667 14.3333 16.4 17 12 17C7.6 17 3.93333 14.3333 1 9C3.93333 3.66667 7.6 1 12 1C16.4 1 20.0667 3.66667 23 9Z" stroke="#8E8E8E" stroke-width="2" stroke-linecap="round" stroke-linejoin="round"/>
</g>
</svg>
