<svg width="20" height="20" viewBox="0 0 20 20" fill="none" xmlns="http://www.w3.org/2000/svg">
<path d="M19.1667 3.07692H15V2.30769C15 1.69565 14.7366 1.10868 14.2678 0.675907C13.7989 0.243131 13.163 0 12.5 0H7.5C6.83696 0 6.20107 0.243131 5.73223 0.675907C5.26339 1.10868 5 1.69565 5 2.30769V3.07692H0.833333C0.61232 3.07692 0.400358 3.15797 0.244078 3.30223C0.0877975 3.44648 0 3.64214 0 3.84615C0 4.05017 0.0877975 4.24582 0.244078 4.39008C0.400358 4.53434 0.61232 4.61538 0.833333 4.61538H1.66667V18.4615C1.66667 18.8696 1.84226 19.2609 2.15482 19.5494C2.46738 19.8379 2.89131 20 3.33333 20H16.6667C17.1087 20 17.5326 19.8379 17.8452 19.5494C18.1577 19.2609 18.3333 18.8696 18.3333 18.4615V4.61538H19.1667C19.3877 4.61538 19.5996 4.53434 19.7559 4.39008C19.9122 4.24582 20 4.05017 20 3.84615C20 3.64214 19.9122 3.44648 19.7559 3.30223C19.5996 3.15797 19.3877 3.07692 19.1667 3.07692ZM6.66667 2.30769C6.66667 2.10368 6.75446 1.90802 6.91074 1.76376C7.06702 1.61951 7.27899 1.53846 7.5 1.53846H12.5C12.721 1.53846 12.933 1.61951 13.0893 1.76376C13.2455 1.90802 13.3333 2.10368 13.3333 2.30769V3.07692H6.66667V2.30769ZM16.6667 18.4615H3.33333V4.61538H16.6667V18.4615ZM8.33333 8.46154V14.6154C8.33333 14.8194 8.24554 15.0151 8.08926 15.1593C7.93297 15.3036 7.72101 15.3846 7.5 15.3846C7.27899 15.3846 7.06702 15.3036 6.91074 15.1593C6.75446 15.0151 6.66667 14.8194 6.66667 14.6154V8.46154C6.66667 8.25753 6.75446 8.06187 6.91074 7.91761C7.06702 7.77335 7.27899 7.69231 7.5 7.69231C7.72101 7.69231 7.93297 7.77335 8.08926 7.91761C8.24554 8.06187 8.33333 8.25753 8.33333 8.46154ZM13.3333 8.46154V14.6154C13.3333 14.8194 13.2455 15.0151 13.0893 15.1593C12.933 15.3036 12.721 15.3846 12.5 15.3846C12.279 15.3846 12.067 15.3036 11.9107 15.1593C11.7545 15.0151 11.6667 14.8194 11.6667 14.6154V8.46154C11.6667 8.25753 11.7545 8.06187 11.9107 7.91761C12.067 7.77335 12.279 7.69231 12.5 7.69231C12.721 7.69231 12.933 7.77335 13.0893 7.91761C13.2455 8.06187 13.3333 8.25753 13.3333 8.46154Z" fill="black"/>
</svg>
